<?xml version="1.0" encoding="UTF-8" standalone="no"?>
<!DOCTYPE svg PUBLIC "-//W3C//DTD SVG 1.1//EN"
 "http://www.w3.org/Graphics/SVG/1.1/DTD/svg11.dtd">
<!-- Generated by graphviz version 12.1.2 (0)
 -->
<!-- Title: G Pages: 1 -->
<svg width="170pt" height="367pt"
 viewBox="0.00 0.00 170.25 367.00" xmlns="http://www.w3.org/2000/svg" xmlns:xlink="http://www.w3.org/1999/xlink">
<g id="graph0" class="graph" transform="scale(1 1) rotate(0) translate(4 363)">
<title>G</title>
<polygon fill="white" stroke="none" points="-4,4 -4,-363 166.25,-363 166.25,4 -4,4"/>
<!-- START -->
<g id="node1" class="node">
<title>START</title>
<polygon fill="none" stroke="black" points="142.75,-359 85.5,-359 85.5,-323 142.75,-323 142.75,-359"/>
<text text-anchor="middle" x="114.12" y="-335.95" font-family="Times,serif" font-size="14.00">START</text>
</g>
<!-- a -->
<g id="node2" class="node">
<title>a</title>
<polygon fill="none" stroke="black" points="114.12,-286 87.12,-268 114.12,-250 141.12,-268 114.12,-286"/>
<text text-anchor="middle" x="114.12" y="-262.95" font-family="Times,serif" font-size="14.00">A</text>
</g>
<!-- START&#45;&gt;a -->
<g id="edge1" class="edge">
<title>START&#45;&gt;a</title>
<path fill="none" stroke="black" d="M114.12,-322.81C114.12,-315.34 114.12,-306.37 114.12,-297.92"/>
<polygon fill="black" stroke="black" points="117.63,-298.04 114.13,-288.04 110.63,-298.04 117.63,-298.04"/>
</g>
<!-- b -->
<g id="node3" class="node">
<title>b</title>
<polygon fill="none" stroke="black" points="90.12,-197.5 36.12,-197.5 36.12,-161.5 90.12,-161.5 90.12,-197.5"/>
<text text-anchor="middle" x="63.12" y="-174.45" font-family="Times,serif" font-size="14.00">A+=B</text>
</g>
<!-- a&#45;&gt;b -->
<g id="edge2" class="edge">
<title>a&#45;&gt;b</title>
<path fill="none" stroke="black" d="M106.82,-254.61C99.63,-242.42 88.43,-223.42 79.16,-207.7"/>
<polygon fill="black" stroke="black" points="82.28,-206.1 74.19,-199.26 76.25,-209.65 82.28,-206.1"/>
<text text-anchor="middle" x="102.19" y="-218.7" font-family="Times,serif" font-size="14.00">≠ 1</text>
</g>
<!-- end1 -->
<g id="node5" class="node">
<title>end1</title>
<polygon fill="none" stroke="black" points="162.25,-197.5 108,-197.5 108,-161.5 162.25,-161.5 162.25,-197.5"/>
<text text-anchor="middle" x="135.12" y="-174.45" font-family="Times,serif" font-size="14.00">END 1</text>
</g>
<!-- a&#45;&gt;end1 -->
<g id="edge3" class="edge">
<title>a&#45;&gt;end1</title>
<path fill="none" stroke="black" d="M117.78,-251.93C120.68,-240.02 124.8,-223.04 128.29,-208.63"/>
<polygon fill="black" stroke="black" points="131.62,-209.79 130.58,-199.24 124.81,-208.13 131.62,-209.79"/>
<text text-anchor="middle" x="135.88" y="-218.7" font-family="Times,serif" font-size="14.00">= 1</text>
</g>
<!-- c -->
<g id="node4" class="node">
<title>c</title>
<polygon fill="none" stroke="black" points="63.12,-124.5 36.12,-106.5 63.12,-88.5 90.12,-106.5 63.12,-124.5"/>
<text text-anchor="middle" x="63.12" y="-101.45" font-family="Times,serif" font-size="14.00">A</text>
</g>
<!-- b&#45;&gt;c -->
<g id="edge4" class="edge">
<title>b&#45;&gt;c</title>
<path fill="none" stroke="black" d="M63.12,-161.31C63.12,-153.84 63.12,-144.87 63.12,-136.42"/>
<polygon fill="black" stroke="black" points="66.63,-136.54 63.13,-126.54 59.63,-136.54 66.63,-136.54"/>
</g>
<!-- end2 -->
<g id="node6" class="node">
<title>end2</title>
<polygon fill="none" stroke="black" points="54.25,-36 0,-36 0,0 54.25,0 54.25,-36"/>
<text text-anchor="middle" x="27.12" y="-12.95" font-family="Times,serif" font-size="14.00">END 2</text>
</g>
<!-- c&#45;&gt;end2 -->
<g id="edge5" class="edge">
<title>c&#45;&gt;end2</title>
<path fill="none" stroke="black" d="M57.5,-91.98C52.47,-79.9 44.95,-61.82 38.64,-46.68"/>
<polygon fill="black" stroke="black" points="41.98,-45.58 34.91,-37.69 35.52,-48.27 41.98,-45.58"/>
<text text-anchor="middle" x="57.35" y="-57.2" font-family="Times,serif" font-size="14.00">≠ 1</text>
</g>
<!-- end3 -->
<g id="node7" class="node">
<title>end3</title>
<polygon fill="none" stroke="black" points="126.25,-36 72,-36 72,0 126.25,0 126.25,-36"/>
<text text-anchor="middle" x="99.12" y="-12.95" font-family="Times,serif" font-size="14.00">END 3</text>
</g>
<!-- c&#45;&gt;end3 -->
<g id="edge6" class="edge">
<title>c&#45;&gt;end3</title>
<path fill="none" stroke="black" d="M68.75,-91.98C73.78,-79.9 81.3,-61.82 87.61,-46.68"/>
<polygon fill="black" stroke="black" points="90.73,-48.27 91.34,-37.69 84.27,-45.58 90.73,-48.27"/>
<text text-anchor="middle" x="93.72" y="-57.2" font-family="Times,serif" font-size="14.00">= 1</text>
</g>
</g>
</svg>
