<?xml version="1.0" encoding="UTF-8" standalone="no"?>
<!DOCTYPE svg PUBLIC "-//W3C//DTD SVG 1.1//EN"
 "http://www.w3.org/Graphics/SVG/1.1/DTD/svg11.dtd">
<!-- Generated by graphviz version 12.1.2 (0)
 -->
<!-- Title: G Pages: 1 -->
<svg width="151pt" height="294pt"
 viewBox="0.00 0.00 151.12 294.00" xmlns="http://www.w3.org/2000/svg" xmlns:xlink="http://www.w3.org/1999/xlink">
<g id="graph0" class="graph" transform="scale(1 1) rotate(0) translate(4 290)">
<title>G</title>
<polygon fill="white" stroke="none" points="-4,4 -4,-290 147.12,-290 147.12,4 -4,4"/>
<!-- START -->
<g id="node1" class="node">
<title>START</title>
<polygon fill="none" stroke="black" points="127.75,-286 70.5,-286 70.5,-250 127.75,-250 127.75,-286"/>
<text text-anchor="middle" x="99.12" y="-262.95" font-family="Times,serif" font-size="14.00">START</text>
</g>
<!-- a -->
<g id="node2" class="node">
<title>a</title>
<polygon fill="none" stroke="black" points="99.12,-213 72.12,-195 99.12,-177 126.12,-195 99.12,-213"/>
<text text-anchor="middle" x="99.12" y="-189.95" font-family="Times,serif" font-size="14.00">A</text>
</g>
<!-- START&#45;&gt;a -->
<g id="edge1" class="edge">
<title>START&#45;&gt;a</title>
<path fill="none" stroke="black" d="M99.12,-249.81C99.12,-242.34 99.12,-233.37 99.12,-224.92"/>
<polygon fill="black" stroke="black" points="102.63,-225.04 99.13,-215.04 95.63,-225.04 102.63,-225.04"/>
</g>
<!-- b -->
<g id="node3" class="node">
<title>b</title>
<polygon fill="none" stroke="black" points="27.12,-124.5 0.13,-106.5 27.12,-88.5 54.12,-106.5 27.12,-124.5"/>
<text text-anchor="middle" x="27.12" y="-101.45" font-family="Times,serif" font-size="14.00">B</text>
</g>
<!-- a&#45;&gt;b -->
<g id="edge2" class="edge">
<title>a&#45;&gt;b</title>
<path fill="none" stroke="black" d="M89.71,-182.69C78.07,-168.7 58.04,-144.65 43.78,-127.51"/>
<polygon fill="black" stroke="black" points="46.6,-125.42 37.51,-119.97 41.22,-129.9 46.6,-125.42"/>
<text text-anchor="middle" x="78.57" y="-145.7" font-family="Times,serif" font-size="14.00">≠ 0</text>
</g>
<!-- end1 -->
<g id="node5" class="node">
<title>end1</title>
<polygon fill="none" stroke="black" points="126.25,-124.5 72,-124.5 72,-88.5 126.25,-88.5 126.25,-124.5"/>
<text text-anchor="middle" x="99.12" y="-101.45" font-family="Times,serif" font-size="14.00">END 1</text>
</g>
<!-- a&#45;&gt;end1 -->
<g id="edge3" class="edge">
<title>a&#45;&gt;end1</title>
<path fill="none" stroke="black" d="M99.12,-176.5C99.12,-165.01 99.12,-149.7 99.12,-136.43"/>
<polygon fill="black" stroke="black" points="102.63,-136.49 99.13,-126.49 95.63,-136.49 102.63,-136.49"/>
<text text-anchor="middle" x="108.5" y="-145.7" font-family="Times,serif" font-size="14.00">= 0</text>
</g>
<!-- c -->
<g id="node4" class="node">
<title>c</title>
<polygon fill="none" stroke="black" points="143.12,-36 89.12,-36 89.12,0 143.12,0 143.12,-36"/>
<text text-anchor="middle" x="116.12" y="-12.95" font-family="Times,serif" font-size="14.00">A&#45;=1</text>
</g>
<!-- b&#45;&gt;c -->
<g id="edge5" class="edge">
<title>b&#45;&gt;c</title>
<path fill="none" stroke="black" d="M37.68,-95.24C50.5,-82.78 72.58,-61.32 90.05,-44.34"/>
<polygon fill="black" stroke="black" points="92.38,-46.96 97.11,-37.48 87.5,-41.94 92.38,-46.96"/>
<text text-anchor="middle" x="89.72" y="-57.2" font-family="Times,serif" font-size="14.00">≠ A</text>
</g>
<!-- end2 -->
<g id="node6" class="node">
<title>end2</title>
<polygon fill="none" stroke="black" points="54.25,-36 0,-36 0,0 54.25,0 54.25,-36"/>
<text text-anchor="middle" x="27.12" y="-12.95" font-family="Times,serif" font-size="14.00">END 2</text>
</g>
<!-- b&#45;&gt;end2 -->
<g id="edge4" class="edge">
<title>b&#45;&gt;end2</title>
<path fill="none" stroke="black" d="M27.12,-88C27.12,-76.51 27.12,-61.2 27.12,-47.93"/>
<polygon fill="black" stroke="black" points="30.63,-47.99 27.13,-37.99 23.63,-47.99 30.63,-47.99"/>
<text text-anchor="middle" x="37.62" y="-57.2" font-family="Times,serif" font-size="14.00">= A</text>
</g>
<!-- c&#45;&gt;a -->
<g id="edge6" class="edge">
<title>c&#45;&gt;a</title>
<path fill="none" stroke="black" d="M123.04,-36.18C130.56,-57.06 140.79,-93.37 135.12,-124.5 131.94,-142.01 122.59,-159.8 114.21,-172.99"/>
<polygon fill="black" stroke="black" points="111.35,-170.98 108.69,-181.24 117.16,-174.88 111.35,-170.98"/>
</g>
</g>
</svg>
