<?xml version="1.0" encoding="UTF-8" standalone="no"?>
<!DOCTYPE svg PUBLIC "-//W3C//DTD SVG 1.1//EN"
 "http://www.w3.org/Graphics/SVG/1.1/DTD/svg11.dtd">
<!-- Generated by graphviz version 12.1.2 (0)
 -->
<!-- Title: G Pages: 1 -->
<svg width="532pt" height="617pt"
 viewBox="0.00 0.00 532.00 617.00" xmlns="http://www.w3.org/2000/svg" xmlns:xlink="http://www.w3.org/1999/xlink">
<g id="graph0" class="graph" transform="scale(1 1) rotate(0) translate(4 613)">
<title>G</title>
<polygon fill="white" stroke="none" points="-4,4 -4,-613 528,-613 528,4 -4,4"/>
<!-- START -->
<g id="node1" class="node">
<title>START</title>
<polygon fill="none" stroke="black" points="299.62,-609 242.38,-609 242.38,-573 299.62,-573 299.62,-609"/>
<text text-anchor="middle" x="271" y="-585.95" font-family="Times,serif" font-size="14.00">START</text>
</g>
<!-- decision1 -->
<g id="node2" class="node">
<title>decision1</title>
<polygon fill="none" stroke="black" points="271,-536 244,-518 271,-500 298,-518 271,-536"/>
<text text-anchor="middle" x="271" y="-512.95" font-family="Times,serif" font-size="14.00">B</text>
</g>
<!-- START&#45;&gt;decision1 -->
<g id="edge1" class="edge">
<title>START&#45;&gt;decision1</title>
<path fill="none" stroke="black" d="M271,-572.81C271,-565.34 271,-556.37 271,-547.92"/>
<polygon fill="black" stroke="black" points="274.5,-548.04 271,-538.04 267.5,-548.04 274.5,-548.04"/>
</g>
<!-- operation1 -->
<g id="node3" class="node">
<title>operation1</title>
<polygon fill="none" stroke="black" points="337,-447.5 283,-447.5 283,-411.5 337,-411.5 337,-447.5"/>
<text text-anchor="middle" x="310" y="-424.45" font-family="Times,serif" font-size="14.00">A+=2</text>
</g>
<!-- decision1&#45;&gt;operation1 -->
<g id="edge3" class="edge">
<title>decision1&#45;&gt;operation1</title>
<path fill="none" stroke="black" d="M277.09,-503.48C282.54,-491.4 290.69,-473.32 297.52,-458.18"/>
<polygon fill="black" stroke="black" points="300.66,-459.73 301.58,-449.18 294.28,-456.85 300.66,-459.73"/>
<text text-anchor="middle" x="302.99" y="-468.7" font-family="Times,serif" font-size="14.00">≠ 4</text>
</g>
<!-- operation3 -->
<g id="node4" class="node">
<title>operation3</title>
<polygon fill="none" stroke="black" points="262,-447.5 208,-447.5 208,-411.5 262,-411.5 262,-447.5"/>
<text text-anchor="middle" x="235" y="-424.45" font-family="Times,serif" font-size="14.00">C=A</text>
</g>
<!-- decision1&#45;&gt;operation3 -->
<g id="edge2" class="edge">
<title>decision1&#45;&gt;operation3</title>
<path fill="none" stroke="black" d="M265.38,-503.48C260.35,-491.4 252.82,-473.32 246.52,-458.18"/>
<polygon fill="black" stroke="black" points="249.85,-457.08 242.78,-449.19 243.39,-459.77 249.85,-457.08"/>
<text text-anchor="middle" x="265.6" y="-468.7" font-family="Times,serif" font-size="14.00">= 4</text>
</g>
<!-- operation2 -->
<g id="node5" class="node">
<title>operation2</title>
<polygon fill="none" stroke="black" points="343.12,-374.5 282.88,-374.5 282.88,-338.5 343.12,-338.5 343.12,-374.5"/>
<text text-anchor="middle" x="313" y="-351.45" font-family="Times,serif" font-size="14.00">C=A+B</text>
</g>
<!-- operation1&#45;&gt;operation2 -->
<g id="edge4" class="edge">
<title>operation1&#45;&gt;operation2</title>
<path fill="none" stroke="black" d="M310.73,-411.31C311.05,-403.64 311.44,-394.39 311.81,-385.74"/>
<polygon fill="black" stroke="black" points="315.29,-386.18 312.22,-376.04 308.3,-385.88 315.29,-386.18"/>
</g>
<!-- decision3 -->
<g id="node6" class="node">
<title>decision3</title>
<polygon fill="none" stroke="black" points="218,-374.5 191,-356.5 218,-338.5 245,-356.5 218,-374.5"/>
<text text-anchor="middle" x="218" y="-351.45" font-family="Times,serif" font-size="14.00">A</text>
</g>
<!-- operation3&#45;&gt;decision3 -->
<g id="edge6" class="edge">
<title>operation3&#45;&gt;decision3</title>
<path fill="none" stroke="black" d="M230.88,-411.31C228.89,-403 226.46,-392.85 224.25,-383.61"/>
<polygon fill="black" stroke="black" points="227.7,-382.98 221.97,-374.07 220.89,-384.61 227.7,-382.98"/>
</g>
<!-- decision2 -->
<g id="node7" class="node">
<title>decision2</title>
<polygon fill="none" stroke="black" points="317,-286 290,-268 317,-250 344,-268 317,-286"/>
<text text-anchor="middle" x="317" y="-262.95" font-family="Times,serif" font-size="14.00">A</text>
</g>
<!-- operation2&#45;&gt;decision2 -->
<g id="edge5" class="edge">
<title>operation2&#45;&gt;decision2</title>
<path fill="none" stroke="black" d="M313.79,-338.41C314.33,-326.68 315.07,-310.84 315.69,-297.25"/>
<polygon fill="black" stroke="black" points="319.18,-297.72 316.14,-287.57 312.18,-297.39 319.18,-297.72"/>
</g>
<!-- decision3&#45;&gt;operation2 -->
<g id="edge7" class="edge">
<title>decision3&#45;&gt;operation2</title>
<path fill="none" stroke="black" d="M245.73,-356.5C253.64,-356.5 262.44,-356.5 270.99,-356.5"/>
<polygon fill="black" stroke="black" points="270.89,-360 280.89,-356.5 270.89,-353 270.89,-360"/>
<text text-anchor="middle" x="263.94" y="-362.7" font-family="Times,serif" font-size="14.00">≠ B</text>
</g>
<!-- operation4 -->
<g id="node8" class="node">
<title>operation4</title>
<polygon fill="none" stroke="black" points="54,-286 0,-286 0,-250 54,-250 54,-286"/>
<text text-anchor="middle" x="27" y="-262.95" font-family="Times,serif" font-size="14.00">C+=1</text>
</g>
<!-- decision3&#45;&gt;operation4 -->
<g id="edge8" class="edge">
<title>decision3&#45;&gt;operation4</title>
<path fill="none" stroke="black" d="M202.37,-348.42C172.54,-334.91 106.72,-305.1 64.74,-286.09"/>
<polygon fill="black" stroke="black" points="66.29,-282.95 55.74,-282.01 63.4,-289.33 66.29,-282.95"/>
<text text-anchor="middle" x="150.11" y="-307.2" font-family="Times,serif" font-size="14.00">= B</text>
</g>
<!-- operation7 -->
<g id="node11" class="node">
<title>operation7</title>
<polygon fill="none" stroke="black" points="434,-286 380,-286 380,-250 434,-250 434,-286"/>
<text text-anchor="middle" x="407" y="-262.95" font-family="Times,serif" font-size="14.00">C&#45;=2</text>
</g>
<!-- decision2&#45;&gt;operation7 -->
<g id="edge12" class="edge">
<title>decision2&#45;&gt;operation7</title>
<path fill="none" stroke="black" d="M344.49,-268C351.99,-268 360.27,-268 368.27,-268"/>
<polygon fill="black" stroke="black" points="368.16,-271.5 378.16,-268 368.16,-264.5 368.16,-271.5"/>
<text text-anchor="middle" x="362" y="-274.2" font-family="Times,serif" font-size="14.00">≠ 0</text>
</g>
<!-- operation9 -->
<g id="node13" class="node">
<title>operation9</title>
<polygon fill="none" stroke="black" points="344,-197.5 290,-197.5 290,-161.5 344,-161.5 344,-197.5"/>
<text text-anchor="middle" x="317" y="-174.45" font-family="Times,serif" font-size="14.00">A=3</text>
</g>
<!-- decision2&#45;&gt;operation9 -->
<g id="edge15" class="edge">
<title>decision2&#45;&gt;operation9</title>
<path fill="none" stroke="black" d="M317,-249.5C317,-238.01 317,-222.7 317,-209.43"/>
<polygon fill="black" stroke="black" points="320.5,-209.49 317,-199.49 313.5,-209.49 320.5,-209.49"/>
<text text-anchor="middle" x="326.38" y="-218.7" font-family="Times,serif" font-size="14.00">= 0</text>
</g>
<!-- operation5 -->
<g id="node9" class="node">
<title>operation5</title>
<polygon fill="none" stroke="black" points="144,-286 90,-286 90,-250 144,-250 144,-286"/>
<text text-anchor="middle" x="117" y="-262.95" font-family="Times,serif" font-size="14.00">A+=1</text>
</g>
<!-- operation4&#45;&gt;operation5 -->
<g id="edge9" class="edge">
<title>operation4&#45;&gt;operation5</title>
<path fill="none" stroke="black" d="M54.42,-268C62.4,-268 70.37,-268 78.35,-268"/>
<polygon fill="black" stroke="black" points="78.11,-271.5 88.11,-268 78.11,-264.5 78.11,-271.5"/>
</g>
<!-- operation6 -->
<g id="node10" class="node">
<title>operation6</title>
<polygon fill="none" stroke="black" points="234,-286 180,-286 180,-250 234,-250 234,-286"/>
<text text-anchor="middle" x="207" y="-262.95" font-family="Times,serif" font-size="14.00">B+=1</text>
</g>
<!-- operation5&#45;&gt;operation6 -->
<g id="edge10" class="edge">
<title>operation5&#45;&gt;operation6</title>
<path fill="none" stroke="black" d="M144.42,-268C152.4,-268 160.37,-268 168.35,-268"/>
<polygon fill="black" stroke="black" points="168.11,-271.5 178.11,-268 168.11,-264.5 168.11,-271.5"/>
</g>
<!-- operation6&#45;&gt;decision3 -->
<g id="edge11" class="edge">
<title>operation6&#45;&gt;decision3</title>
<path fill="none" stroke="black" d="M209.19,-286.25C210.72,-298.28 212.8,-314.59 214.55,-328.36"/>
<polygon fill="black" stroke="black" points="211.06,-328.65 215.79,-338.13 218,-327.77 211.06,-328.65"/>
</g>
<!-- operation8 -->
<g id="node12" class="node">
<title>operation8</title>
<polygon fill="none" stroke="black" points="524,-286 470,-286 470,-250 524,-250 524,-286"/>
<text text-anchor="middle" x="497" y="-262.95" font-family="Times,serif" font-size="14.00">A&#45;=1</text>
</g>
<!-- operation7&#45;&gt;operation8 -->
<g id="edge13" class="edge">
<title>operation7&#45;&gt;operation8</title>
<path fill="none" stroke="black" d="M434.42,-268C442.4,-268 450.37,-268 458.35,-268"/>
<polygon fill="black" stroke="black" points="458.11,-271.5 468.11,-268 458.11,-264.5 458.11,-271.5"/>
</g>
<!-- operation8&#45;&gt;decision2 -->
<g id="edge14" class="edge">
<title>operation8&#45;&gt;decision2</title>
<path fill="none" stroke="black" d="M477.46,-286.49C465.82,-296.2 450.19,-307.13 434,-312.25 411.12,-319.48 402.88,-319.48 380,-312.25 363.71,-307.1 347.98,-296.06 336.31,-286.3"/>
<polygon fill="black" stroke="black" points="338.85,-283.86 329.03,-279.88 334.22,-289.12 338.85,-283.86"/>
</g>
<!-- decision4 -->
<g id="node14" class="node">
<title>decision4</title>
<polygon fill="none" stroke="black" points="317,-124.5 290,-106.5 317,-88.5 344,-106.5 317,-124.5"/>
<text text-anchor="middle" x="317" y="-101.45" font-family="Times,serif" font-size="14.00">B</text>
</g>
<!-- operation9&#45;&gt;decision4 -->
<g id="edge16" class="edge">
<title>operation9&#45;&gt;decision4</title>
<path fill="none" stroke="black" d="M317,-161.31C317,-153.84 317,-144.87 317,-136.42"/>
<polygon fill="black" stroke="black" points="320.5,-136.54 317,-126.54 313.5,-136.54 320.5,-136.54"/>
</g>
<!-- end -->
<g id="node15" class="node">
<title>end</title>
<polygon fill="none" stroke="black" points="437,-124.5 383,-124.5 383,-88.5 437,-88.5 437,-124.5"/>
<text text-anchor="middle" x="410" y="-101.45" font-family="Times,serif" font-size="14.00">END</text>
</g>
<!-- decision4&#45;&gt;end -->
<g id="edge17" class="edge">
<title>decision4&#45;&gt;end</title>
<path fill="none" stroke="black" d="M344.65,-106.5C352.99,-106.5 362.3,-106.5 371.23,-106.5"/>
<polygon fill="black" stroke="black" points="371.1,-110 381.1,-106.5 371.1,-103 371.1,-110"/>
<text text-anchor="middle" x="363.5" y="-112.7" font-family="Times,serif" font-size="14.00">= A</text>
</g>
<!-- operation10 -->
<g id="node16" class="node">
<title>operation10</title>
<polygon fill="none" stroke="black" points="305,-36 251,-36 251,0 305,0 305,-36"/>
<text text-anchor="middle" x="278" y="-12.95" font-family="Times,serif" font-size="14.00">C+=A</text>
</g>
<!-- decision4&#45;&gt;operation10 -->
<g id="edge18" class="edge">
<title>decision4&#45;&gt;operation10</title>
<path fill="none" stroke="black" d="M310.91,-91.98C305.46,-79.9 297.31,-61.82 290.48,-46.68"/>
<polygon fill="black" stroke="black" points="293.72,-45.35 286.42,-37.68 287.34,-48.23 293.72,-45.35"/>
<text text-anchor="middle" x="311.12" y="-57.2" font-family="Times,serif" font-size="14.00">≠ A</text>
</g>
<!-- operation10&#45;&gt;decision3 -->
<g id="edge19" class="edge">
<title>operation10&#45;&gt;decision3</title>
<path fill="none" stroke="black" d="M272.85,-36.39C268.17,-53.73 262,-81.22 262,-105.5 262,-269 262,-269 262,-269 262,-294.07 247.14,-319.22 234.69,-335.89"/>
<polygon fill="black" stroke="black" points="232.15,-333.45 228.7,-343.47 237.65,-337.79 232.15,-333.45"/>
</g>
</g>
</svg>
